<svg version="1.1" xmlns="http://www.w3.org/2000/svg" viewBox="0 0 585.0076203140183 87.7243389761162" width="1170.0152406280365" height="175.4486779522324">
  <!-- svg-source:excalidraw -->
  
  <defs>
    <style class="style-fonts">
      @font-face {
        font-family: "Virgil";
        src: url("https://excalidraw.com/Virgil.woff2");
      }
      @font-face {
        font-family: "Cascadia";
        src: url("https://excalidraw.com/Cascadia.woff2");
      }
      @font-face {
        font-family: "Assistant";
        src: url("https://excalidraw.com/Assistant-Regular.woff2");
      }
    </style>
    
  </defs>
  <g stroke-linecap="round" transform="translate(326.3453860447672 10.468947646567415) rotate(0 124.33111713462552 28.83460338566971)"><path d="M14.42 0 C97.61 -0.28, 181.46 0.47, 234.24 0 M14.42 0 C85.11 -1.32, 154.76 -0.9, 234.24 0 M234.24 0 C244.44 -0.85, 248.35 3.48, 248.66 14.42 M234.24 0 C243.5 -0.26, 250.08 2.68, 248.66 14.42 M248.66 14.42 C249.91 23.22, 247.15 31.17, 248.66 43.25 M248.66 14.42 C249.24 22.57, 248.07 32.04, 248.66 43.25 M248.66 43.25 C248.29 52.81, 243.08 57.92, 234.24 57.67 M248.66 43.25 C249.41 54.48, 242.2 56.26, 234.24 57.67 M234.24 57.67 C148.2 57.3, 61.82 57.96, 14.42 57.67 M234.24 57.67 C179.1 58.42, 123.94 57.88, 14.42 57.67 M14.42 57.67 C4.21 57.03, -1.51 51.31, 0 43.25 M14.42 57.67 C6.92 58.48, 2.28 52.06, 0 43.25 M0 43.25 C1.9 33.51, 0.94 22.68, 0 14.42 M0 43.25 C0.76 32.54, -0.61 24.08, 0 14.42 M0 14.42 C-1.08 2.94, 2.96 0.51, 14.42 0 M0 14.42 C0.24 3.43, 4.11 -2.15, 14.42 0" stroke="#1e1e1e" stroke-width="2" fill="none"></path></g><g transform="translate(341.30983447822086 26.803551032237124) rotate(0 109.36666870117182 12.5)"><text x="109.36666870117188" y="17.52" font-family="Virgil, Segoe UI Emoji" font-size="20px" fill="#1e1e1e" text-anchor="middle" style="white-space: pre;" direction="ltr" dominant-baseline="alphabetic">Server (rust-analyzer)</text></g><g stroke-linecap="round" transform="translate(10 10) rotate(0 89.69677287372781 33.8621694880581)"><path d="M16.93 0 C59.41 -0.41, 103.37 0.29, 162.46 0 M16.93 0 C72.58 -1.47, 127.06 -2.08, 162.46 0 M162.46 0 C172.78 -1.63, 177.68 5.75, 179.39 16.93 M162.46 0 C172.5 -1.38, 178.64 5.12, 179.39 16.93 M179.39 16.93 C181.09 28.84, 179.44 41.44, 179.39 50.79 M179.39 16.93 C179.37 27.77, 179.31 37.64, 179.39 50.79 M179.39 50.79 C178.87 61.13, 172.83 68.27, 162.46 67.72 M179.39 50.79 C177.76 63.9, 174.11 68.44, 162.46 67.72 M162.46 67.72 C115.63 69.14, 70.99 67.22, 16.93 67.72 M162.46 67.72 C114.02 69.39, 65.87 69.59, 16.93 67.72 M16.93 67.72 C7.03 67.47, 0.75 61.8, 0 50.79 M16.93 67.72 C6.02 68.21, 0.59 63.93, 0 50.79 M0 50.79 C-1.08 37.55, 1.37 26.48, 0 16.93 M0 50.79 C0.68 41.73, 0.48 33.28, 0 16.93 M0 16.93 C0.31 3.85, 5.25 1.39, 16.93 0 M0 16.93 C0.71 5.39, 5.55 -2.03, 16.93 0" stroke="#1e1e1e" stroke-width="2" fill="none"></path></g><g transform="translate(28.94677287372781 31.3621694880581) rotate(0 70.75 12.5)"><text x="70.75" y="17.52" font-family="Virgil, Segoe UI Emoji" font-size="20px" fill="#1e1e1e" text-anchor="middle" style="white-space: pre;" direction="ltr" dominant-baseline="alphabetic">Client (Neovim)</text></g><g mask="url(#mask-HdUYhMuGuxr7xZiqMfdCG)" stroke-linecap="round"><g transform="translate(190.39354574745562 23.776498498957437) rotate(0 67.47592014865586 0.6428436849079162)"><path d="M0.45 -0.56 C22.91 -0.18, 111.93 2.24, 134.37 2.37 M-0.77 1.76 C22.12 1.82, 114.25 0.94, 136.77 0.81" stroke="#1e1e1e" stroke-width="2" fill="none"></path></g><g transform="translate(190.39354574745562 23.776498498957437) rotate(0 67.47592014865586 0.6428436849079162)"><path d="M113.34 9.55 C118.69 6.14, 127.71 4.95, 136.77 0.81 M113.34 9.55 C118.83 7.32, 123.17 6.09, 136.77 0.81" stroke="#1e1e1e" stroke-width="2" fill="none"></path></g><g transform="translate(190.39354574745562 23.776498498957437) rotate(0 67.47592014865586 0.6428436849079162)"><path d="M113.21 -7.55 C118.61 -6.38, 127.67 -2.98, 136.77 0.81 M113.21 -7.55 C118.62 -6.16, 122.99 -3.76, 136.77 0.81" stroke="#1e1e1e" stroke-width="2" fill="none"></path></g></g><mask id="mask-HdUYhMuGuxr7xZiqMfdCG"><rect x="0" y="0" fill="#fff" width="425.34538604476734" height="125.06218586877327"></rect><rect x="220.4027987208185" y="11.919342183865353" fill="#000" width="74.93333435058594" height="25" opacity="1"></rect></mask><g transform="translate(220.4027987208185 11.919342183865353) rotate(0 37.99159572641361 12.762413438409567)"><text x="37.46666717529297" y="17.52" font-family="Virgil, Segoe UI Emoji" font-size="20px" fill="#1e1e1e" text-anchor="middle" style="white-space: pre;" direction="ltr" dominant-baseline="alphabetic">request</text></g><g mask="url(#mask-l4ZQ_jIoHjAFY4RSuMdS8)" stroke-linecap="round"><g transform="translate(325.3453860447672 57.75889761981813) rotate(0 -67.4759201486558 0.8010448176428326)"><path d="M0.55 -0.43 C-21.69 -0.11, -111.5 1.5, -134.24 1.9 M-0.62 -1.7 C-22.89 -1.76, -112.67 -0.33, -134.81 -0.07" stroke="#1e1e1e" stroke-width="2" fill="none"></path></g><g transform="translate(325.3453860447672 57.75889761981813) rotate(0 -67.4759201486558 0.8010448176428326)"><path d="M-111.44 -8.94 C-117.64 -5.56, -121.92 -6.19, -134.81 -0.07 M-111.44 -8.94 C-119.96 -5.54, -127.54 -3.44, -134.81 -0.07" stroke="#1e1e1e" stroke-width="2" fill="none"></path></g><g transform="translate(325.3453860447672 57.75889761981813) rotate(0 -67.4759201486558 0.8010448176428326)"><path d="M-111.2 8.16 C-117.46 7.53, -121.8 2.87, -134.81 -0.07 M-111.2 8.16 C-119.97 5.86, -127.63 2.27, -134.81 -0.07" stroke="#1e1e1e" stroke-width="2" fill="none"></path></g></g><mask id="mask-l4ZQ_jIoHjAFY4RSuMdS8"><rect x="0" y="0" fill="#fff" width="560.2972263420788" height="159.3609872551038"></rect><rect x="216.63613230846477" y="46.05994243746096" fill="#000" width="82.46666717529297" height="25" opacity="1"></rect></mask><g transform="translate(216.63613230846488 46.05994243746096) rotate(0 41.58102995818018 11.798401890663627)"><text x="41.233333587646484" y="17.52" font-family="Virgil, Segoe UI Emoji" font-size="20px" fill="#1e1e1e" text-anchor="middle" style="white-space: pre;" direction="ltr" dominant-baseline="alphabetic">response</text></g></svg>