<svg version="1.1" xmlns="http://www.w3.org/2000/svg" viewBox="0 0 573.1432601987751 168.5334432908843" width="1146.2865203975502" height="337.0668865817686">
  <!-- svg-source:excalidraw -->
  
  <defs>
    <style class="style-fonts">
      @font-face {
        font-family: "Virgil";
        src: url("https://excalidraw.com/Virgil.woff2");
      }
      @font-face {
        font-family: "Cascadia";
        src: url("https://excalidraw.com/Cascadia.woff2");
      }
      @font-face {
        font-family: "Assistant";
        src: url("https://excalidraw.com/Assistant-Regular.woff2");
      }
    </style>
    
  </defs>
  <g stroke-linecap="round" transform="translate(309.58683237013906 12.703421469851037) rotate(0 124.33111713462552 28.83460338566971)"><path d="M14.42 0 C62.52 0.04, 109.24 -1.2, 234.24 0 M14.42 0 C95.95 -0.55, 175.92 0.36, 234.24 0 M234.24 0 C245.14 -0.34, 249.51 6.21, 248.66 14.42 M234.24 0 C243.87 0.13, 247 5.33, 248.66 14.42 M248.66 14.42 C248.07 24.79, 247.11 34.91, 248.66 43.25 M248.66 14.42 C248.6 25, 248.1 37.31, 248.66 43.25 M248.66 43.25 C248.8 51.19, 243.77 59.64, 234.24 57.67 M248.66 43.25 C246.85 53.83, 243.55 56.09, 234.24 57.67 M234.24 57.67 C181.43 58.94, 132.31 58.54, 14.42 57.67 M234.24 57.67 C149.45 57.24, 62.99 56.05, 14.42 57.67 M14.42 57.67 C3.37 57.66, 1.34 51.16, 0 43.25 M14.42 57.67 C4.69 56.07, 0.85 52.29, 0 43.25 M0 43.25 C0.1 37.17, 0.43 26, 0 14.42 M0 43.25 C-0.31 33.46, 0.18 25.03, 0 14.42 M0 14.42 C0.07 5.05, 3.56 0.66, 14.42 0 M0 14.42 C-0.47 5.93, 6.68 -1.66, 14.42 0" stroke="#1e1e1e" stroke-width="2" fill="none"></path></g><g transform="translate(324.5512808035926 29.03802485552069) rotate(0 109.36666870117188 12.5)"><text x="109.36666870117188" y="17.52" font-family="Virgil, Segoe UI Emoji" font-size="20px" fill="#1e1e1e" text-anchor="middle" style="white-space: pre;" direction="ltr" dominant-baseline="alphabetic">Server (rust-analyzer)</text></g><g stroke-linecap="round" transform="translate(10 10) rotate(0 89.69677287372781 33.8621694880581)"><path d="M16.93 0 C65.4 -0.21, 111.13 1.92, 162.46 0 M16.93 0 C52.01 -0.78, 86.23 0.09, 162.46 0 M162.46 0 C173.76 0.12, 177.95 6.1, 179.39 16.93 M162.46 0 C174.47 0.75, 181.62 4.85, 179.39 16.93 M179.39 16.93 C180.97 29.11, 178.02 39.68, 179.39 50.79 M179.39 16.93 C179.24 23.75, 179.13 33.22, 179.39 50.79 M179.39 50.79 C177.82 62.92, 173.49 66.35, 162.46 67.72 M179.39 50.79 C177.87 62.3, 173.75 65.89, 162.46 67.72 M162.46 67.72 C109.89 68.26, 52.52 69.93, 16.93 67.72 M162.46 67.72 C105.22 67.01, 50.08 66.17, 16.93 67.72 M16.93 67.72 C5.54 66.33, 0.74 61.58, 0 50.79 M16.93 67.72 C5.07 68.12, 0.12 62.25, 0 50.79 M0 50.79 C0.23 39.37, -1.2 24.11, 0 16.93 M0 50.79 C-0.12 43.11, -0.78 35.51, 0 16.93 M0 16.93 C-0.41 6.62, 7.28 -1.45, 16.93 0 M0 16.93 C-0.65 4.64, 3.59 -0.31, 16.93 0" stroke="#1e1e1e" stroke-width="2" fill="none"></path></g><g transform="translate(28.946772873727696 31.362169488058043) rotate(0 70.75 12.5)"><text x="70.75" y="17.52" font-family="Virgil, Segoe UI Emoji" font-size="20px" fill="#1e1e1e" text-anchor="middle" style="white-space: pre;" direction="ltr" dominant-baseline="alphabetic">Client (Neovim)</text></g><g mask="url(#mask-WpjIwDLHKynh8sC_kxU_Q)" stroke-linecap="round"><g transform="translate(190.39354574745562 42.050213076638215) rotate(0 59.09664331134172 -0.7852212517859698)"><path d="M0.74 -0.76 C20.41 -0.94, 97.8 -0.9, 117.51 -1.07 M-0.33 1.45 C19.78 0.92, 100.04 -2.59, 119.86 -2.92" stroke="#1e1e1e" stroke-width="2" fill="none"></path></g><g transform="translate(190.39354574745562 42.050213076638215) rotate(0 59.09664331134172 -0.7852212517859698)"><path d="M96.66 6.38 C101.3 2.73, 109.32 2.79, 119.86 -2.92 M96.66 6.38 C103.18 3.64, 109.02 1.18, 119.86 -2.92" stroke="#1e1e1e" stroke-width="2" fill="none"></path></g><g transform="translate(190.39354574745562 42.050213076638215) rotate(0 59.09664331134172 -0.7852212517859698)"><path d="M96.11 -10.71 C100.89 -10.02, 109.05 -5.61, 119.86 -2.92 M96.11 -10.71 C102.86 -8.62, 108.85 -6.25, 119.86 -2.92" stroke="#1e1e1e" stroke-width="2" fill="none"></path></g></g><mask id="mask-WpjIwDLHKynh8sC_kxU_Q"><rect x="0" y="0" fill="#fff" width="408.58683237013906" height="143.62065558021015"></rect><rect x="226.59018944026707" y="28.764991824852245" fill="#000" width="45.79999923706055" height="25" opacity="1"></rect></mask><g transform="translate(226.59018944026707 28.764991824852245) rotate(0 23.56677866737357 12.551466715382446)"><text x="22.899999618530273" y="17.52" font-family="Virgil, Segoe UI Emoji" font-size="20px" fill="#1e1e1e" text-anchor="middle" style="white-space: pre;" direction="ltr" dominant-baseline="alphabetic">notif</text></g><g stroke-linecap="round" transform="translate(314.481025929524 93.51252578461913) rotate(0 124.33111713462557 28.83460338566971)"><path d="M14.42 0 C68.7 0.33, 122.23 -0.42, 234.24 0 M14.42 0 C69.74 1.62, 125.3 1.44, 234.24 0 M234.24 0 C242.61 1.44, 246.98 3.69, 248.66 14.42 M234.24 0 C244.3 -1.71, 249.53 5.87, 248.66 14.42 M248.66 14.42 C249.88 22.45, 246.62 26.16, 248.66 43.25 M248.66 14.42 C249.39 24.49, 247.68 33.81, 248.66 43.25 M248.66 43.25 C249.47 51.17, 245.45 58.28, 234.24 57.67 M248.66 43.25 C248.87 53.43, 242.76 59.06, 234.24 57.67 M234.24 57.67 C185.1 58.8, 132.67 56.65, 14.42 57.67 M234.24 57.67 C186.78 58.17, 138.41 59.02, 14.42 57.67 M14.42 57.67 C3.81 57.02, 0.34 52.01, 0 43.25 M14.42 57.67 C3.48 58.04, 2.05 53.58, 0 43.25 M0 43.25 C-1.5 34.34, 1.56 22.43, 0 14.42 M0 43.25 C0.05 34.57, -0.74 25.8, 0 14.42 M0 14.42 C-0.14 4.74, 3.41 -0.82, 14.42 0 M0 14.42 C1.51 3.19, 2.69 -1.95, 14.42 0" stroke="#1e1e1e" stroke-width="2" fill="none"></path></g><g transform="translate(329.44547436297773 109.8471291702889) rotate(0 109.36666870117182 12.5)"><text x="109.36666870117188" y="17.52" font-family="Virgil, Segoe UI Emoji" font-size="20px" fill="#1e1e1e" text-anchor="middle" style="white-space: pre;" direction="ltr" dominant-baseline="alphabetic">Server (rust-analyzer)</text></g><g stroke-linecap="round" transform="translate(14.894193559384917 90.80910431476809) rotate(0 89.69677287372781 33.8621694880581)"><path d="M16.93 0 C53.58 1.77, 90.17 0.13, 162.46 0 M16.93 0 C56.63 1.36, 96.72 0.08, 162.46 0 M162.46 0 C174.14 -1.48, 180.15 6.57, 179.39 16.93 M162.46 0 C172.3 -1.03, 179.75 7.19, 179.39 16.93 M179.39 16.93 C179.87 28.7, 179.96 42.88, 179.39 50.79 M179.39 16.93 C179.48 27.14, 179.88 39.35, 179.39 50.79 M179.39 50.79 C179.58 62.58, 172.8 68.93, 162.46 67.72 M179.39 50.79 C177.73 64.38, 173.85 68.93, 162.46 67.72 M162.46 67.72 C108.39 66.67, 58.99 68.2, 16.93 67.72 M162.46 67.72 C132.75 67.39, 104.21 67.29, 16.93 67.72 M16.93 67.72 C4.49 68.05, 1.78 62.7, 0 50.79 M16.93 67.72 C6.44 69.38, -1.7 60.59, 0 50.79 M0 50.79 C-0.05 39, -1.35 27.96, 0 16.93 M0 50.79 C0.2 39.47, -0.43 27.79, 0 16.93 M0 16.93 C1.31 4.24, 3.81 -1.69, 16.93 0 M0 16.93 C-2.29 7.63, 5.03 -1.8, 16.93 0" stroke="#1e1e1e" stroke-width="2" fill="none"></path></g><g transform="translate(33.840966433112726 112.17127380282625) rotate(0 70.75 12.5)"><text x="70.75" y="17.52" font-family="Virgil, Segoe UI Emoji" font-size="20px" fill="#1e1e1e" text-anchor="middle" style="white-space: pre;" direction="ltr" dominant-baseline="alphabetic">Client (Neovim)</text></g><g mask="url(#mask-51JfKsyfdfzmgJMBdLmmm)" stroke-linecap="round"><g transform="translate(321.535510322371 125.0937912146901) rotate(0 -68.82698307165151 0.33201565985586967)"><path d="M-0.67 -0.28 C-23.83 -0.06, -115.71 -0.16, -138.67 0.14 M1.19 -1.47 C-21.64 -0.99, -113.64 1.21, -136.48 1.4" stroke="#1e1e1e" stroke-width="2" fill="none"></path></g><g transform="translate(321.535510322371 125.0937912146901) rotate(0 -68.82698307165151 0.33201565985586967)"><path d="M-113.14 -7.56 C-121.3 -6.45, -129.34 -3.09, -136.48 1.4 M-113.14 -7.56 C-121.7 -5.1, -130.19 -0.57, -136.48 1.4" stroke="#1e1e1e" stroke-width="2" fill="none"></path></g><g transform="translate(321.535510322371 125.0937912146901) rotate(0 -68.82698307165151 0.33201565985586967)"><path d="M-112.85 9.54 C-120.94 5.07, -129.08 2.85, -136.48 1.4 M-112.85 9.54 C-121.37 5.64, -129.97 3.82, -136.48 1.4" stroke="#1e1e1e" stroke-width="2" fill="none"></path></g></g><mask id="mask-51JfKsyfdfzmgJMBdLmmm"><rect x="0" y="0" fill="#fff" width="559.189476465674" height="225.75782253440184"></rect><rect x="229.80852763218923" y="112.92580687454597" fill="#000" width="45.79999923706055" height="25" opacity="1"></rect></mask><g transform="translate(229.80852763218923 112.92580687454597) rotate(0 22.987149931392594 12.132673056768283)"><text x="22.899999618530273" y="17.52" font-family="Virgil, Segoe UI Emoji" font-size="20px" fill="#1e1e1e" text-anchor="middle" style="white-space: pre;" direction="ltr" dominant-baseline="alphabetic">notif</text></g></svg>