<svg version="1.1" xmlns="http://www.w3.org/2000/svg" viewBox="0 0 585.0076203140184 87.7243389761162" width="1170.0152406280367" height="175.4486779522324">
  <!-- svg-source:excalidraw -->
  
  <defs>
    <style class="style-fonts">
      @font-face {
        font-family: "Virgil";
        src: url("https://excalidraw.com/Virgil.woff2");
      }
      @font-face {
        font-family: "Cascadia";
        src: url("https://excalidraw.com/Cascadia.woff2");
      }
      @font-face {
        font-family: "Assistant";
        src: url("https://excalidraw.com/Assistant-Regular.woff2");
      }
    </style>
    
  </defs>
  <g stroke-linecap="round" transform="translate(326.3453860447672 12.70342146985115) rotate(0 124.33111713462557 28.83460338566971)"><path d="M14.42 0 C75.22 -0.82, 132.65 -1.56, 234.24 0 M14.42 0 C71.23 -2.49, 129.21 -1.18, 234.24 0 M234.24 0 C242.56 -1.06, 248.29 5.5, 248.66 14.42 M234.24 0 C243.16 -1.99, 248.94 3.71, 248.66 14.42 M248.66 14.42 C250.03 26.98, 248.2 36.71, 248.66 43.25 M248.66 14.42 C248.74 23.98, 248.35 31.15, 248.66 43.25 M248.66 43.25 C250.32 52.29, 245.7 55.97, 234.24 57.67 M248.66 43.25 C250.58 53.63, 242.16 57.73, 234.24 57.67 M234.24 57.67 C154.24 58.16, 74.05 59.99, 14.42 57.67 M234.24 57.67 C175.81 57.87, 117.4 58, 14.42 57.67 M14.42 57.67 C4.21 56.85, -1.97 52.12, 0 43.25 M14.42 57.67 C3.22 59.25, -0.13 54.1, 0 43.25 M0 43.25 C1.02 37.39, -1.36 28.73, 0 14.42 M0 43.25 C0.02 37.4, 0.62 29.86, 0 14.42 M0 14.42 C-0.91 5.56, 6.13 -1.12, 14.42 0 M0 14.42 C0.92 3.79, 4.42 -1.29, 14.42 0" stroke="#1e1e1e" stroke-width="2" fill="none"></path></g><g transform="translate(341.30983447822086 29.03802485552086) rotate(0 109.36666870117188 12.5)"><text x="109.36666870117188" y="17.52" font-family="Virgil, Segoe UI Emoji" font-size="20px" fill="#1e1e1e" text-anchor="middle" style="white-space: pre;" direction="ltr" dominant-baseline="alphabetic">Server (rust-analyzer)</text></g><g stroke-linecap="round" transform="translate(10 10) rotate(0 89.69677287372781 33.8621694880581)"><path d="M16.93 0 C62.58 0.68, 111.78 -0.86, 162.46 0 M16.93 0 C49.97 -1.73, 84.12 -0.85, 162.46 0 M162.46 0 C173.15 -1.73, 179.64 4.69, 179.39 16.93 M162.46 0 C175.4 1.52, 177.56 6.99, 179.39 16.93 M179.39 16.93 C179.4 28.25, 177.46 44.2, 179.39 50.79 M179.39 16.93 C180.21 29.31, 180.31 41.42, 179.39 50.79 M179.39 50.79 C181.06 62.75, 172.27 67.78, 162.46 67.72 M179.39 50.79 C180.82 62.67, 175.09 67.16, 162.46 67.72 M162.46 67.72 C123.24 69.92, 85.38 68.06, 16.93 67.72 M162.46 67.72 C114.17 67.98, 65.48 68.01, 16.93 67.72 M16.93 67.72 C4.26 69.1, -0.11 63.15, 0 50.79 M16.93 67.72 C3.74 67.78, -0.73 63.26, 0 50.79 M0 50.79 C-1.44 39, -0.59 28.9, 0 16.93 M0 50.79 C-0.62 39.67, 0.5 27.23, 0 16.93 M0 16.93 C0.8 4.76, 5.31 -1.12, 16.93 0 M0 16.93 C0.24 7.23, 5.65 -1.76, 16.93 0" stroke="#1e1e1e" stroke-width="2" fill="none"></path></g><g transform="translate(28.94677287372781 31.3621694880581) rotate(0 70.75 12.5)"><text x="70.75" y="17.52" font-family="Virgil, Segoe UI Emoji" font-size="20px" fill="#1e1e1e" text-anchor="middle" style="white-space: pre;" direction="ltr" dominant-baseline="alphabetic">Client (Neovim)</text></g><g mask="url(#mask-MDv3mMxo_8ZZhOTVGi7bW)" stroke-linecap="round"><g transform="translate(325.3453860447671 28.29273948219719) rotate(0 -67.47592014865575 -0.20299230302629212)"><path d="M-0.73 -0.82 C-23.22 -0.92, -112.28 0.62, -134.78 0.58 M1.09 1.36 C-21.56 1.44, -113.26 -0.79, -135.65 -1.02" stroke="#1e1e1e" stroke-width="2" fill="none"></path></g><g transform="translate(325.3453860447671 28.29273948219719) rotate(0 -67.47592014865575 -0.20299230302629212)"><path d="M-112 -9.15 C-120.78 -6.44, -125.25 -5.44, -135.65 -1.02 M-112 -9.15 C-118.15 -7.93, -123.57 -5.53, -135.65 -1.02" stroke="#1e1e1e" stroke-width="2" fill="none"></path></g><g transform="translate(325.3453860447671 28.29273948219719) rotate(0 -67.47592014865575 -0.20299230302629212)"><path d="M-112.31 7.95 C-121.16 5.25, -125.53 0.83, -135.65 -1.02 M-112.31 7.95 C-118.36 4.95, -123.69 3.12, -135.65 -1.02" stroke="#1e1e1e" stroke-width="2" fill="none"></path></g></g><mask id="mask-MDv3mMxo_8ZZhOTVGi7bW"><rect x="0" y="0" fill="#fff" width="560.2972263420786" height="128.69872408824978"></rect><rect x="220.40279872081828" y="15.5897471791709" fill="#000" width="74.93333435058594" height="25" opacity="1"></rect></mask><g transform="translate(220.4027987208184 15.5897471791709) rotate(0 37.66733757953159 12.87226075084942)"><text x="37.46666717529297" y="17.52" font-family="Virgil, Segoe UI Emoji" font-size="20px" fill="#1e1e1e" text-anchor="middle" style="white-space: pre;" direction="ltr" dominant-baseline="alphabetic">request</text></g><g mask="url(#mask-IosK9IvEPj0ptf3gFJi58)" stroke-linecap="round"><g transform="translate(190.39354574745562 54.85753130963775) rotate(0 67.4759201486558 -0.8164041939751598)"><path d="M-0.78 -0.64 C21.65 -1.01, 112.17 -0.88, 134.73 -1.22 M1.02 1.64 C23.25 0.82, 111.56 -2.53, 133.67 -3.12" stroke="#1e1e1e" stroke-width="2" fill="none"></path></g><g transform="translate(190.39354574745562 54.85753130963775) rotate(0 67.4759201486558 -0.8164041939751598)"><path d="M110.47 6.2 C116.61 3.06, 125.65 -0.1, 133.67 -3.12 M110.47 6.2 C116.13 4.98, 119.56 2.92, 133.67 -3.12" stroke="#1e1e1e" stroke-width="2" fill="none"></path></g><g transform="translate(190.39354574745562 54.85753130963775) rotate(0 67.4759201486558 -0.8164041939751598)"><path d="M109.9 -10.89 C116.36 -8.67, 125.58 -6.46, 133.67 -3.12 M109.9 -10.89 C115.7 -8.46, 119.26 -6.87, 133.67 -3.12" stroke="#1e1e1e" stroke-width="2" fill="none"></path></g></g><mask id="mask-IosK9IvEPj0ptf3gFJi58"><rect x="0" y="0" fill="#fff" width="425.3453860447672" height="156.49033969758807"></rect><rect x="216.636132308465" y="41.541127115662505" fill="#000" width="82.46666717529297" height="25" opacity="1"></rect></mask><g transform="translate(216.636132308465 41.54112711566256) rotate(0 40.73375182524319 12.576249877857066)"><text x="41.233333587646484" y="17.52" font-family="Virgil, Segoe UI Emoji" font-size="20px" fill="#1e1e1e" text-anchor="middle" style="white-space: pre;" direction="ltr" dominant-baseline="alphabetic">response</text></g></svg>